<svg width="347" height="133" viewBox="0 0 347 133" fill="none" xmlns="http://www.w3.org/2000/svg">
<path d="M61.5 2.5L1 121.5L73.5 131L61.5 2.5Z" fill="white"/>
<path d="M94 131.5L85 12L167 34L118.5 56.5L167 105L94 131.5Z" fill="white"/>
<path d="M239.5 2L179 121L251.5 130.5L239.5 2Z" fill="white"/>
<path d="M272 131L263 11.5L345 33.5L296.5 56L345 104.5L272 131Z" fill="white"/>
<path d="M61.5 2.5L1 121.5L73.5 131L61.5 2.5Z" stroke="black"/>
<path d="M94 131.5L85 12L167 34L118.5 56.5L167 105L94 131.5Z" stroke="black"/>
<path d="M239.5 2L179 121L251.5 130.5L239.5 2Z" stroke="black"/>
<path d="M272 131L263 11.5L345 33.5L296.5 56L345 104.5L272 131Z" stroke="black"/>
</svg>
